<svg xmlns="http://www.w3.org/2000/svg" viewBox="0 0 800 800">
<defs>
<linearGradient id="g" x1="0" y1="0" x2="1" y2="1">
<stop stop-color="#101b27"/>
<stop offset=".55" stop-color="#27505a"/>
<stop offset="1" stop-color="#0a8c91"/>
</linearGradient>
</defs>
<rect width="800" height="800" fill="url(#g)"/>
<circle cx="620" cy="170" r="170" fill="#7ee0d8" opacity=".15"/>
<circle cx="170" cy="650" r="210" fill="#7a82ff" opacity=".12"/>
<path d="M335 250v305c-25-17-58-19-87-3-39 22-56 67-37 101s67 43 106 21c28-16 44-44 43-71V351l190-45v198c-25-17-58-19-87-3-39 22-56 67-37 101s67 43 106 21c28-16 44-44 43-71V188z" fill="#fff" opacity=".92"/>
</svg>